<svg width="285" height="49" viewBox="0 0 285 49" fill="none" xmlns="http://www.w3.org/2000/svg">
<path d="M25.85 19.8C27.85 20.4333 29.4167 21.5 30.55 23C31.6833 24.4667 32.25 26.2833 32.25 28.45C32.25 31.5167 31.05 33.8833 28.65 35.55C26.2833 37.1833 22.8167 38 18.25 38H0.15V3H17.25C21.5167 3 24.7833 3.81666 27.05 5.45C29.35 7.08333 30.5 9.3 30.5 12.1C30.5 13.8 30.0833 15.3167 29.25 16.65C28.45 17.9833 27.3167 19.0333 25.85 19.8ZM8.2 9.1V17.35H16.25C18.25 17.35 19.7667 17 20.8 16.3C21.8333 15.6 22.35 14.5667 22.35 13.2C22.35 11.8333 21.8333 10.8167 20.8 10.15C19.7667 9.45 18.25 9.1 16.25 9.1H8.2ZM17.65 31.9C19.7833 31.9 21.3833 31.55 22.45 30.85C23.55 30.15 24.1 29.0667 24.1 27.6C24.1 24.7 21.95 23.25 17.65 23.25H8.2V31.9H17.65ZM34.0824 0.899998H41.8824V38H34.0824V0.899998ZM58.1715 38.4C55.3382 38.4 52.7882 37.8167 50.5215 36.65C48.2882 35.45 46.5382 33.8 45.2715 31.7C44.0048 29.6 43.3715 27.2167 43.3715 24.55C43.3715 21.8833 44.0048 19.5 45.2715 17.4C46.5382 15.3 48.2882 13.6667 50.5215 12.5C52.7882 11.3 55.3382 10.7 58.1715 10.7C61.0048 10.7 63.5382 11.3 65.7715 12.5C68.0048 13.6667 69.7548 15.3 71.0215 17.4C72.2882 19.5 72.9215 21.8833 72.9215 24.55C72.9215 27.2167 72.2882 29.6 71.0215 31.7C69.7548 33.8 68.0048 35.45 65.7715 36.65C63.5382 37.8167 61.0048 38.4 58.1715 38.4ZM58.1715 32C60.1715 32 61.8048 31.3333 63.0715 30C64.3715 28.6333 65.0215 26.8167 65.0215 24.55C65.0215 22.2833 64.3715 20.4833 63.0715 19.15C61.8048 17.7833 60.1715 17.1 58.1715 17.1C56.1715 17.1 54.5215 17.7833 53.2215 19.15C51.9215 20.4833 51.2715 22.2833 51.2715 24.55C51.2715 26.8167 51.9215 28.6333 53.2215 30C54.5215 31.3333 56.1715 32 58.1715 32ZM87.3852 38.4C84.5185 38.4 81.9352 37.8167 79.6352 36.65C77.3685 35.45 75.5852 33.8 74.2852 31.7C73.0185 29.6 72.3852 27.2167 72.3852 24.55C72.3852 21.8833 73.0185 19.5 74.2852 17.4C75.5852 15.3 77.3685 13.6667 79.6352 12.5C81.9352 11.3 84.5185 10.7 87.3852 10.7C90.2185 10.7 92.6852 11.3 94.7852 12.5C96.9185 13.6667 98.4685 15.35 99.4352 17.55L93.3852 20.8C91.9852 18.3333 89.9685 17.1 87.3352 17.1C85.3018 17.1 83.6185 17.7667 82.2852 19.1C80.9518 20.4333 80.2852 22.25 80.2852 24.55C80.2852 26.85 80.9518 28.6667 82.2852 30C83.6185 31.3333 85.3018 32 87.3352 32C90.0018 32 92.0185 30.7667 93.3852 28.3L99.4352 31.6C98.4685 33.7333 96.9185 35.4 94.7852 36.6C92.6852 37.8 90.2185 38.4 87.3852 38.4ZM111.531 27.45L107.781 31.15V38H99.9809V0.899998H107.781V21.9L119.181 11.1H128.481L117.281 22.5L129.481 38H120.031L111.531 27.45ZM162.499 38L155.749 28.25H155.349H148.299V38H140.199V3H155.349C158.449 3 161.132 3.51666 163.399 4.55C165.699 5.58333 167.465 7.05 168.699 8.95C169.932 10.85 170.549 13.1 170.549 15.7C170.549 18.3 169.915 20.55 168.649 22.45C167.415 24.3167 165.649 25.75 163.349 26.75L171.199 38H162.499ZM162.349 15.7C162.349 13.7333 161.715 12.2333 160.449 11.2C159.182 10.1333 157.332 9.6 154.899 9.6H148.299V21.8H154.899C157.332 21.8 159.182 21.2667 160.449 20.2C161.715 19.1333 162.349 17.6333 162.349 15.7ZM199.016 24.65C199.016 24.75 198.966 25.45 198.866 26.75H178.516C178.883 28.4167 179.75 29.7333 181.116 30.7C182.483 31.6667 184.183 32.15 186.216 32.15C187.616 32.15 188.85 31.95 189.916 31.55C191.016 31.1167 192.033 30.45 192.966 29.55L197.116 34.05C194.583 36.95 190.883 38.4 186.016 38.4C182.983 38.4 180.3 37.8167 177.966 36.65C175.633 35.45 173.833 33.8 172.566 31.7C171.3 29.6 170.666 27.2167 170.666 24.55C170.666 21.9167 171.283 19.55 172.516 17.45C173.783 15.3167 175.5 13.6667 177.666 12.5C179.866 11.3 182.316 10.7 185.016 10.7C187.65 10.7 190.033 11.2667 192.166 12.4C194.3 13.5333 195.966 15.1667 197.166 17.3C198.4 19.4 199.016 21.85 199.016 24.65ZM185.066 16.6C183.3 16.6 181.816 17.1 180.616 18.1C179.416 19.1 178.683 20.4667 178.416 22.2H191.666C191.4 20.5 190.666 19.15 189.466 18.15C188.266 17.1167 186.8 16.6 185.066 16.6ZM210.577 10.7C214.744 10.7 217.944 11.7 220.177 13.7C222.41 15.6667 223.527 18.65 223.527 22.65V38H216.227V34.65C214.76 37.15 212.027 38.4 208.027 38.4C205.96 38.4 204.16 38.05 202.627 37.35C201.127 36.65 199.977 35.6833 199.177 34.45C198.377 33.2167 197.977 31.8167 197.977 30.25C197.977 27.75 198.91 25.7833 200.777 24.35C202.677 22.9167 205.594 22.2 209.527 22.2H215.727C215.727 20.5 215.21 19.2 214.177 18.3C213.144 17.3667 211.594 16.9 209.527 16.9C208.094 16.9 206.677 17.1333 205.277 17.6C203.91 18.0333 202.744 18.6333 201.777 19.4L198.977 13.95C200.444 12.9167 202.194 12.1167 204.227 11.55C206.294 10.9833 208.41 10.7 210.577 10.7ZM209.977 33.15C211.31 33.15 212.494 32.85 213.527 32.25C214.56 31.6167 215.294 30.7 215.727 29.5V26.75H210.377C207.177 26.75 205.577 27.8 205.577 29.9C205.577 30.9 205.96 31.7 206.727 32.3C207.527 32.8667 208.61 33.15 209.977 33.15ZM254.529 0.899998V38H247.079V34.9C245.146 37.2333 242.346 38.4 238.679 38.4C236.146 38.4 233.846 37.8333 231.779 36.7C229.746 35.5667 228.146 33.95 226.979 31.85C225.813 29.75 225.229 27.3167 225.229 24.55C225.229 21.7833 225.813 19.35 226.979 17.25C228.146 15.15 229.746 13.5333 231.779 12.4C233.846 11.2667 236.146 10.7 238.679 10.7C242.113 10.7 244.796 11.7833 246.729 13.95V0.899998H254.529ZM240.029 32C241.996 32 243.629 31.3333 244.929 30C246.229 28.6333 246.879 26.8167 246.879 24.55C246.879 22.2833 246.229 20.4833 244.929 19.15C243.629 17.7833 241.996 17.1 240.029 17.1C238.029 17.1 236.379 17.7833 235.079 19.15C233.779 20.4833 233.129 22.2833 233.129 24.55C233.129 26.8167 233.779 28.6333 235.079 30C236.379 31.3333 238.029 32 240.029 32ZM284.698 11.1L272.548 39.65C271.315 42.75 269.782 44.9333 267.948 46.2C266.148 47.4667 263.965 48.1 261.398 48.1C259.998 48.1 258.615 47.8833 257.248 47.45C255.882 47.0167 254.765 46.4167 253.898 45.65L256.748 40.1C257.348 40.6333 258.032 41.05 258.798 41.35C259.598 41.65 260.382 41.8 261.148 41.8C262.215 41.8 263.082 41.5333 263.748 41C264.415 40.5 265.015 39.65 265.548 38.45L265.648 38.2L253.998 11.1H262.048L269.598 29.35L277.198 11.1H284.698Z" fill="#FF3C5F"/>
</svg>
